<?xml version="1.0" encoding="UTF-8"?>
<svg id="OBJECTS" xmlns="http://www.w3.org/2000/svg" viewBox="0 0 610 580">
  <defs>
    <style>
      .cls-1 {
        fill: #172554;
      }

      .cls-1, .cls-2 {
        stroke-width: 0px;
      }

      .cls-2 {
        fill: #ededed;
      }

      .cls-3 {
        fill: #2563eb;
        stroke: #172554;
        stroke-miterlimit: 10;
        stroke-width: 5px;
      }
    </style>
  </defs>
  <path class="cls-3" d="M430.77,470.15c59.59-47.98,97.75-121.49,97.75-203.95C528.52,121.64,411.33,4.44,266.76,4.44S5,121.64,5,266.2s117.19,261.76,261.76,261.76c18.04,0,35.65-1.83,52.67-5.3,28.37,23.47,76.63,45.09,156.21,52.9-16.67-23.34-36.47-66.65-44.87-105.41Z"/>
  <g>
    <path class="cls-1" d="M12.34,453.61c123.19,9.28,323.74-3.79,490.96-147.02l29.57,58.18,72.13-153.24-158.07-24.32,30.95,67.43S327.59,431.61,12.63,440.16c-8.54.23-8.81,12.81-.29,13.45Z"/>
    <g>
      <path class="cls-2" d="M180.6,242.93v146.32c-26.44,6.81-54.79,12.51-85.11,16.51v-162.82c0-9.74,7.88-17.62,17.62-17.62h49.88c9.74,0,17.62,7.88,17.62,17.62Z"/>
      <path class="cls-2" d="M296.67,174.96v172.88c-25.3,11.8-53.68,23-85.11,32.66v-205.54c0-9.74,7.88-17.62,17.62-17.62h49.88c9.74,0,17.62,7.88,17.62,17.62Z"/>
      <path class="cls-2" d="M412.74,113.6v163.3c-20.86,16.51-49.17,36.22-85.11,55.46V113.6c0-9.7,7.88-17.62,17.62-17.62h49.88c9.7,0,17.62,7.92,17.62,17.62Z"/>
    </g>
  </g>
</svg>