<svg xmlns="http://www.w3.org/2000/svg" version="1.1" xmlns:xlink="http://www.w3.org/1999/xlink" xmlns:svgjs="http://svgjs.dev/svgjs" width="1248" height="464" preserveAspectRatio="none" viewBox="0 0 1248 464"><g mask="url(&quot;#SvgjsMask1080&quot;)" fill="none"><path d="M545.371,87.69C559.378,86.856,571.357,78.836,578.665,66.857C586.339,54.278,590.212,38.757,583.099,25.852C575.783,12.578,560.523,6.08,545.371,6.451C530.866,6.807,518.465,15.359,510.716,27.626C502.301,40.947,496.549,57.629,504.423,71.276C512.3,84.928,529.638,88.626,545.371,87.69" fill="rgba(31, 61, 145, 0.42)" class="triangle-float1"></path><path d="M1250.452,573.594C1289.037,572.778,1330.142,568.883,1352.159,537.186C1377.17,501.178,1382.881,452.631,1360.772,414.772C1338.818,377.178,1293.935,360.886,1250.452,363.019C1210.609,364.973,1178.249,390.733,1157.409,424.748C1135.376,460.71,1118.654,505.889,1141.009,541.652C1162.599,576.19,1209.73,574.455,1250.452,573.594" fill="rgba(31, 61, 145, 0.42)" class="triangle-float1"></path><path d="M615.509,624.82C661.18,624.275,693.187,584.593,714.895,544.407C735.297,506.638,745.584,461.492,723.681,424.574C702.131,388.252,657.734,376.035,615.509,376.891C574.998,377.712,535.768,394.213,514.679,428.812C492.728,464.825,492.634,509.326,511.927,546.83C533.117,588.022,569.189,625.373,615.509,624.82" fill="rgba(31, 61, 145, 0.42)" class="triangle-float3"></path><path d="M491.441,353.554C535.693,353.562,582.667,345.536,606.795,308.441C632.856,268.375,630.529,216.707,607.798,174.662C583.845,130.357,541.768,93.103,491.441,95.071C443.431,96.948,412.685,140.913,389.842,183.183C368.446,222.775,353.105,269.749,376.155,308.401C398.811,346.393,447.207,353.546,491.441,353.554" fill="rgba(31, 61, 145, 0.42)" class="triangle-float1"></path><path d="M904.752,315.78C944.703,318.348,992.403,318.142,1011.97,283.217C1031.34,248.644,1005.054,209.062,982.981,176.149C964.2,148.145,938.399,125.541,904.752,123.346C866.788,120.87,825.717,131.754,806.595,164.644C787.4,197.659,798.212,238.788,819.013,270.816C837.852,299.823,870.235,313.562,904.752,315.78" fill="rgba(31, 61, 145, 0.42)" class="triangle-float2"></path><path d="M780.025,242.788C796.295,242.274,813.685,238.341,821.58,224.106C829.308,210.171,822.562,193.952,814.838,180.014C806.778,165.47,796.621,150.161,780.025,149.125C762.027,148.002,746.006,159.652,736.771,175.141C727.287,191.046,723.685,211.28,733.661,226.881C743.095,241.635,762.522,243.341,780.025,242.788" fill="rgba(31, 61, 145, 0.42)" class="triangle-float2"></path><path d="M815.133,635.788C862.142,639.846,912.607,622.74,935.53,581.499C957.995,541.083,941.559,492.323,916.464,453.485C893.796,418.404,856.888,394.113,815.133,395.174C775.029,396.193,741.118,422.964,722.347,458.418C704.783,491.591,708.659,530.156,726.058,563.416C745.064,599.748,774.282,632.261,815.133,635.788" fill="rgba(31, 61, 145, 0.42)" class="triangle-float1"></path><path d="M1166.656,458.867C1182.161,459.751,1199.787,459.226,1208.237,446.196C1217.197,432.379,1213.561,414.104,1204.675,400.239C1196.488,387.464,1181.828,381.454,1166.656,381.314C1151.197,381.171,1134.989,386.055,1127.403,399.526C1119.924,412.808,1124.142,429.166,1132.552,441.879C1140.062,453.232,1153.066,458.092,1166.656,458.867" fill="rgba(31, 61, 145, 0.42)" class="triangle-float3"></path><path d="M1129.944,187.026C1155.221,185.883,1177.325,171.783,1190.388,150.113C1203.938,127.633,1210.121,99.221,1196.335,76.885C1183.042,55.349,1155.217,50.85,1129.944,52.184C1107.315,53.379,1087.43,64.576,1074.676,83.307C1059.724,105.266,1046.734,132.599,1059.227,156.044C1072.198,180.387,1102.389,188.272,1129.944,187.026" fill="rgba(31, 61, 145, 0.42)" class="triangle-float1"></path><path d="M72.545,583.253C109.322,584.471,141.104,558.329,157.882,525.58C173.275,495.536,168.875,459.612,150.348,431.392C133.556,405.815,103.137,396.158,72.545,395.597C40.69,395.013,6.238,401.251,-10.361,428.445C-27.494,456.513,-19.06,491.247,-3.535,520.236C13.127,551.349,37.27,582.085,72.545,583.253" fill="rgba(31, 61, 145, 0.42)" class="triangle-float2"></path><path d="M373.025,252.77C404.527,250.975,423.788,222.105,439.71,194.864C455.845,167.257,473.034,135.522,458.067,107.265C442.471,77.819,406.346,68.813,373.025,68.966C340.024,69.118,306.41,79.806,289.325,108.04C271.701,137.165,274.699,173.825,291.741,203.294C308.761,232.724,339.083,254.703,373.025,252.77" fill="rgba(31, 61, 145, 0.42)" class="triangle-float1"></path><path d="M348.748,195.36C376.538,195.382,393.17,167.321,405.943,142.64C417.408,120.486,424.116,94.904,412.026,73.085C399.615,50.686,374.324,40.69,348.748,39.416C320.255,37.997,287.325,41.221,273.518,66.185C259.944,90.727,277.591,118.316,291.705,142.552C305.681,166.551,320.976,195.339,348.748,195.36" fill="rgba(31, 61, 145, 0.42)" class="triangle-float3"></path><path d="M309.834,529.932C335.545,532.376,364.593,525.329,376.731,502.532C388.454,480.515,373.953,455.669,360.593,434.604C348.511,415.554,332.391,397.232,309.834,397.053C287.038,396.872,267.974,413.456,257.658,433.786C248.285,452.257,251.974,473.406,261.853,491.611C272.317,510.893,287.994,527.856,309.834,529.932" fill="rgba(31, 61, 145, 0.42)" class="triangle-float3"></path><path d="M779.179,318.38C820.467,318.44,866.767,321.006,890.457,287.19C916.914,249.424,917.3,196.308,891.444,158.128C867.871,123.319,821.156,120.574,779.179,122.874C742.152,124.903,707.128,138.631,686.378,169.365C662.616,204.56,646.007,250.823,668.456,286.87C690.198,321.781,738.051,318.321,779.179,318.38" fill="rgba(31, 61, 145, 0.42)" class="triangle-float2"></path><path d="M687.405,344.24C699.703,344.122,709.187,334.516,715.025,323.691C720.53,313.484,721.347,301.527,715.985,291.244C710.173,280.098,699.968,271.14,687.405,270.723C674.184,270.284,661.566,277.561,655.338,289.231C649.421,300.318,652.522,313.374,658.851,324.231C665.125,334.993,674.949,344.36,687.405,344.24" fill="rgba(31, 61, 145, 0.42)" class="triangle-float2"></path></g><defs><mask id="SvgjsMask1080"><rect width="1248" height="464" fill="#ffffff"></rect></mask><style>
                @keyframes float1 {
                    0%{transform: translate(0, 0)}
                    50%{transform: translate(-10px, 0)}
                    100%{transform: translate(0, 0)}
                }

                .triangle-float1 {
                    animation: float1 5s infinite;
                }

                @keyframes float2 {
                    0%{transform: translate(0, 0)}
                    50%{transform: translate(-5px, -5px)}
                    100%{transform: translate(0, 0)}
                }

                .triangle-float2 {
                    animation: float2 4s infinite;
                }

                @keyframes float3 {
                    0%{transform: translate(0, 0)}
                    50%{transform: translate(0, -10px)}
                    100%{transform: translate(0, 0)}
                }

                .triangle-float3 {
                    animation: float3 6s infinite;
                }
            </style></defs></svg>